<svg width="478" height="241" viewBox="0 0 478 241" fill="none" xmlns="http://www.w3.org/2000/svg">
<g clip-path="url(#clip0_26_39)">
<path d="M317.146 219C319.79 219 321.976 219.188 324.12 218.968C333.911 217.965 337.263 227.492 334.623 234.707C333.372 238.128 330.816 239.999 327.05 239.998C306.717 239.994 286.385 240.041 266.053 239.965C261.125 239.947 258.197 236.797 258.002 231.838C257.618 222.021 260.5 219.006 270.275 219C272.589 218.999 274.902 219 277.608 219C277.608 215.636 277.608 212.604 277.608 209.139C259.843 210.053 242.252 210.959 224.348 211.88C224.348 214.292 224.348 216.219 224.348 219.001C227.968 219.001 231.714 218.951 235.458 219.013C241.225 219.109 244.962 223.206 244.997 229.372C245.034 235.94 241.433 239.99 235.48 239.995C215.815 240.009 196.149 240.009 176.484 239.994C170.579 239.99 167.057 236.204 167.001 229.886C166.94 223.06 170.263 219.147 176.37 219.02C180.674 218.93 184.982 219.002 189.64 219.002C189.64 216.354 189.64 214.104 189.64 211.421C188.542 211.294 187.287 211.088 186.025 211.01C169.36 209.993 152.69 209.054 136.03 207.973C116.586 206.711 97.1326 205.531 77.7141 203.938C60.345 202.514 44.8767 196.086 31.9062 184.343C14.4256 168.518 4.90699 148.479 1.96838 125.28C-0.81882 103.275 0.584226 81.7702 11.2035 61.694C23.4278 38.5832 42.4792 24.81 68.367 21.0296C86.7834 18.3403 104.995 19.0383 121.881 28.0284C138.599 36.9293 147.627 50.5427 148.156 70.0639C148.706 90.3821 141.288 106.815 126.381 119.982C116.751 128.487 105.109 133.043 92.2952 133.928C80.9438 134.712 69.9905 133.398 60.1031 126.745C50.318 120.161 45.3645 110.711 44.1784 99.5635C42.8757 87.3199 45.4513 75.9087 53.43 65.7036C59.7403 57.6326 67.8305 53.1722 77.2928 51.2304C85.3179 49.5835 93.6055 49.8364 101.483 52.8658C120.302 60.1032 122.245 80.5698 111.92 94.5182C105.266 103.507 96.3469 107.835 85.038 107.028C81.2112 106.754 77.5437 106.41 77.0387 101.558C76.5729 97.0812 79.375 93.8203 84.1172 93.0101C92.3186 91.6088 96.413 87.7943 98.0924 79.9901C99.1144 75.2408 96.9858 72.1602 92.4221 70.998C79.3264 67.6629 70.6311 76.1079 66.9436 88.6544C64.0827 98.3881 68.6134 107.308 78.3554 109.654C85.1514 111.29 91.9817 110.665 98.5105 108.115C112.788 102.537 120.746 91.6676 123.875 77.0197C125.925 67.4211 118.644 54.1642 108.812 50.4791C93.9763 44.919 79.0969 44.1295 64.5138 51.8017C51.924 58.4251 45.2433 69.3707 42.1101 82.6772C39.5355 93.6118 41.1594 104.221 46.1005 114.349C52.2874 127.031 62.7622 134.436 76.1975 136.759C94.1759 139.869 111.686 137.187 127.891 128.494C140.342 121.815 149.07 111.983 151.975 97.6379C153.758 88.8336 154.91 79.7289 158.055 71.4052C167.354 46.7937 182.929 27.0792 205.892 13.5078C220.766 4.71681 236.68 0.924463 253.918 0.864639C271.24 0.804521 288.061 3.04978 304.585 8.14114C306.002 8.57763 308.325 7.80021 309.554 6.77748C312.635 4.21259 315.82 2.74782 319.481 4.90124C324.953 8.12004 330.676 11.1435 335.493 15.199C345.345 23.4927 354.737 32.5425 366.91 37.2103C375.725 40.5901 385.032 42.8496 394.274 44.9177C423.504 51.4585 447.68 65.121 463.024 91.937C469.426 103.125 474.27 114.875 477.224 127.421C479.256 136.054 475.771 143.591 471.176 150.029C460.21 165.393 445.138 175.394 427.069 181.053C413.87 185.186 400.355 185.285 386.801 184.922C380.395 184.75 374.417 185.747 368.503 188.186C351.606 195.153 334.051 199.898 316.05 202.97C313.053 203.481 311.754 204.729 311.952 207.855C312.172 211.314 312.003 214.798 312.003 218.636C313.797 218.776 315.233 218.887 317.146 219ZM97.7752 97.9847C100.756 95.2512 104.396 92.9632 106.601 89.7047C114.746 77.6702 112.037 63.2612 96.1637 59.0799C79.6376 54.7265 63.6711 61.2773 55.4143 76.5037C48.2391 89.7357 48.8004 106.595 60.5468 118.057C69.8584 127.144 81.6665 128.125 93.3847 126.78C121.387 123.567 141.248 97.0848 141.227 71.9354C141.21 51.2827 126.96 35.0823 107.631 29.8502C96.8685 26.9367 85.9386 25.9443 75.2041 27.3098C65.5992 28.5316 55.6436 31.0014 47.0502 35.3219C29.9717 43.9085 19.3142 58.7767 13.0301 76.6464C6.85836 94.1968 6.43015 112.214 10.2216 130.274C13.5877 146.31 20.3749 160.836 31.5503 173.007C45.3965 188.088 62.9917 195.455 83.1246 196.933C104.228 198.482 125.358 199.679 146.479 200.989C158.199 201.716 169.928 202.303 181.646 203.066C187.022 203.416 192.38 204.037 197.658 204.527C197.658 211.763 197.658 218.681 197.658 226.001C191.851 226.001 186.381 225.988 180.911 226.004C174.636 226.022 174.424 226.297 175.719 232.988C195.266 232.988 214.902 233.051 234.534 232.829C235.695 232.816 237.431 230.638 237.741 229.215C237.915 228.415 235.765 226.238 234.569 226.163C229.164 225.825 223.726 226.015 218 226.015C218 212.386 218.263 199.563 217.861 186.761C217.714 182.114 216.955 176.987 214.793 172.989C206.245 157.183 192.757 147.078 175.56 142.222C172.641 141.398 169.915 140.647 170.496 137.811C170.766 136.493 174.677 135.863 176.988 135.065C177.522 134.881 178.267 135.264 178.903 135.428C194.095 139.344 205.709 148.778 215.538 160.347C221.736 167.642 224.982 176.415 224.092 186.449C223.585 192.159 224 197.952 224 204.718C239.056 203.803 253.246 203.013 267.422 202.028C270.882 201.788 275.831 202.05 277.336 200.028C279.118 197.633 278.152 193.002 277.96 189.362C277.289 176.661 278.685 164.717 287.979 154.821C293.126 149.34 299.054 145.508 306.402 144.253C307.739 144.025 309.433 145.882 310.963 146.776C310 148.199 309.144 149.714 308.026 151C307.552 151.546 306.531 151.625 305.751 151.894C295.098 155.573 287.907 163.061 286.26 173.928C284.682 184.341 285.262 195.089 285.025 205.692C284.885 211.964 285 218.242 285 225.001C279.575 225.001 274.779 225.033 269.984 224.989C267.336 224.964 264.981 224.905 264.946 228.706C264.914 232.182 266.889 232.97 269.647 232.974C287.479 233.006 305.312 233.004 323.144 232.981C325.827 232.977 327.99 232.451 328.05 228.912C328.111 225.255 326.038 224.935 323.221 224.975C317.286 225.061 311.349 225.001 305.256 225.001C305.256 215.371 305.256 206.442 305.256 198.282C324.937 193.048 344.189 187.928 363.056 182.91C357.563 178.448 351.973 175.113 347.984 170.419C339.589 160.54 338.987 148.139 339.179 135.867C339.204 134.239 341.392 131.549 342.926 131.272C345.935 130.728 346.93 133.226 347.036 136.114C347.236 141.564 347.095 147.118 348.127 152.428C350.107 162.608 354.983 170.746 365.647 174.341C376.947 178.151 385.535 178.771 397 178C397.589 177.96 400.265 178.069 401 178C404.543 177.669 407.428 176.898 410.24 176.639C431.162 174.709 448.809 164.701 462.63 148.72C467.365 143.245 471.922 136.406 470.308 129.201C466.009 110.006 457.298 92.6491 443.648 78.26C428.624 62.4213 408.947 55.01 388.214 51.281C368.244 47.6891 351.277 39.3444 336.346 25.961C331.102 21.2597 325.456 16.9227 319.593 13.0216C315.108 10.0381 313.06 11.4569 313.01 16.7752C312.906 27.8316 317.123 37.6222 322.033 47.199C323.17 49.4165 323.848 51.354 320.996 53.0573C318.187 54.7347 316.711 52.7931 315.774 51.1081C310.722 42.0253 306.035 32.6265 306.18 21.9789C306.245 17.1442 304.517 15.1619 300.287 14.1214C285.048 10.3726 269.723 8.01969 253.91 7.82302C230.23 7.5285 210.568 16.6498 193.648 32.0744C179.292 45.1616 169.27 61.5227 163.085 79.9215C160.127 88.7209 159.085 98.151 156.348 107.041C150.925 124.66 138.122 135.079 121.235 141.019C106.584 146.173 91.4418 147.965 76.0999 145.87C61.8273 143.922 49.8734 137.517 41.9704 124.867C34.3397 112.653 31.6721 99.5853 33.8853 85.2159C36.1607 70.4427 42.563 58.2744 54.7814 49.7205C71.463 38.0422 89.6507 37.6824 108.472 43.7651C124.171 48.8388 132.258 63.1254 130.88 77.5292C129.535 91.5775 122.196 102.684 111.009 110.881C100.39 118.662 88.0839 121.119 75.3588 117.786C66.5539 115.479 58.1796 108.546 58.9752 93.2709C59.6802 79.7355 71.4877 62.4873 88.7881 63.9214C101.199 64.9502 110.065 74.2592 103.899 86.3987C101.915 90.3064 98.8827 93.6822 95.8857 97.6486C95.4545 97.9291 95.0232 98.2096 94.592 98.4901C94.6939 98.6818 94.7958 98.8736 94.8977 99.0653C95.6225 98.7374 96.3474 98.4094 97.7752 97.9847Z" fill="#6082B6"/>
<path d="M410.24 176.639C410.342 172.419 390 154.821 386.801 160.347C386.034 160.758 385.5 162.465 389.5 166C393.5 169.535 399.5 175.528 401 178C404.543 177.669 407.428 176.898 410.24 176.639Z" fill="#6082B6"/>
<path d="M432.328 123.26C422.726 143.993 398.323 151.375 378.656 141.745C357.708 131.487 351.807 108.68 360.15 89.2373C369.064 68.4649 394.12 60.5586 413.363 69.8552C433.888 79.7712 441.641 103.386 432.328 123.26ZM403.064 71.096C394.527 69.0721 386.467 70.3834 378.839 74.6049C359.661 85.2193 354.277 110.962 371.003 128.377C380.758 138.534 396.383 141.254 409.809 134.819C425.002 127.538 432.561 111.93 427.883 95.3171C424.423 83.0254 415.994 75.2117 403.064 71.096Z" fill="black"/>
<path d="M218.432 20.2719C227.296 17.8361 235.778 15.417 244.359 13.4297C246.104 13.0257 248.377 13.9601 250.095 14.8674C250.758 15.2173 251.126 17.9308 250.636 18.3196C249.109 19.5331 247.182 20.6332 245.28 20.9243C225.996 23.8746 208.822 30.8271 196.652 46.8827C192.734 52.0525 189.644 57.8556 186.245 63.4116C184.925 65.5702 184.023 67.8899 180.607 66.3215C177.053 64.6903 177.868 62.4989 179.061 59.8486C187.166 41.8435 200.247 28.794 218.432 20.2719Z" fill="#6082B6"/>
<path d="M404.447 73.0331C416.987 77.0017 425.416 84.8154 428.876 97.1071C433.554 113.72 425.995 129.328 410.802 136.609C397.376 143.044 381.751 140.324 371.996 130.167C355.27 112.752 360.654 87.0093 379.832 76.3949C387.46 72.1734 395.52 70.8621 404.447 73.0331Z" fill="white"/>
<path d="M415.614 112.527C418.071 116.793 419.246 120.914 416.429 124.95C413.821 128.687 410.242 130.749 405.359 130.156C400.62 129.58 395.984 124.518 396 119.517C396.015 114.79 400.404 109.669 404.918 109.138C408.84 108.677 412.466 109.266 415.614 112.527Z" fill="black"/>
</g>
<defs>
<clipPath id="clip0_26_39">
<rect width="478" height="241" fill="white"/>
</clipPath>
</defs>
</svg>
