<?xml version="1.0" standalone="no"?>
<!DOCTYPE svg PUBLIC "-//W3C//DTD SVG 20010904//EN" "http://www.w3.org/TR/2001/REC-SVG-20010904/DTD/svg10.dtd">
<svg version="1.0" xmlns="http://www.w3.org/2000/svg"
    width="485.000000pt" height="280.000000pt" viewBox="0 0 485.000000 280.000000"
    preserveAspectRatio="xMidYMid meet">

        <g transform="translate(0.000000,280.000000) scale(0.100000,-0.100000)"
                fill="#00FF0E" stroke="none">
        <path d="M2445 2580 c-381 -43 -714 -326 -859 -729 -15 -41 -35 -125 -46 -188
-32 -189 -104 -286 -274 -368 -200 -96 -452 -109 -613 -30 -268 132 -322 521
-103 746 98 100 195 134 364 127 223 -10 339 -103 339 -272 0 -98 -29 -170
-100 -246 -79 -86 -160 -124 -273 -128 -74 -3 -91 0 -130 21 -60 31 -83 74
-83 148 0 73 40 157 96 203 33 27 48 31 110 34 62 3 76 1 100 -18 39 -31 38
-92 -3 -148 -33 -46 -50 -57 -102 -67 -48 -9 -78 -38 -78 -75 0 -39 30 -54
101 -53 148 3 278 129 287 279 5 79 -11 126 -60 180 -120 130 -381 121 -527
-19 -23 -23 -54 -59 -67 -79 -87 -135 -85 -341 5 -471 38 -56 78 -88 156 -124
79 -36 244 -44 345 -18 166 43 313 163 387 316 52 106 67 172 67 279 -2 240
-130 403 -379 479 -202 63 -490 36 -665 -61 -323 -180 -480 -583 -394 -1008
60 -292 227 -525 458 -639 114 -57 218 -78 416 -85 91 -4 255 -15 365 -26 248
-24 467 -40 563 -40 l72 0 0 -50 0 -50 -90 0 c-83 0 -93 -2 -115 -25 -35 -34
-35 -102 -1 -142 l24 -28 332 0 332 0 24 28 c28 33 32 83 9 127 -17 34 -33 39
-125 42 l-65 3 -3 43 c-3 40 -2 42 25 42 52 1 387 20 460 26 l73 7 0 -62 0
-61 -74 0 c-100 0 -126 -19 -126 -94 0 -44 4 -57 26 -77 l26 -24 301 -3 c347
-4 370 0 394 55 19 47 10 96 -24 123 -21 16 -40 20 -109 20 l-84 0 0 84 0 85
58 11 c172 35 375 94 518 151 71 28 81 29 232 29 181 0 255 10 369 49 124 43
226 105 319 196 92 89 140 173 150 261 12 94 -93 351 -204 500 -155 209 -345
317 -682 389 -63 13 -133 30 -156 38 -109 39 -216 110 -364 241 -81 72 -158
116 -201 116 -15 0 -40 -11 -56 -24 l-29 -24 -87 23 c-183 49 -409 72 -552 55z
m415 -79 c52 -10 120 -26 152 -35 l56 -17 7 -62 c9 -78 39 -175 76 -249 32
-63 40 -71 63 -62 23 9 20 22 -19 107 -52 112 -78 242 -59 291 16 42 96 3 224
-109 84 -74 191 -150 260 -185 72 -36 134 -55 255 -80 389 -79 602 -230 754
-536 56 -114 91 -218 91 -272 0 -162 -209 -356 -475 -442 -60 -20 -97 -24
-265 -28 -206 -4 -270 3 -345 40 -110 55 -165 169 -165 344 0 70 -14 93 -45
70 -16 -12 -18 -23 -12 -108 12 -188 81 -309 202 -359 37 -15 51 -25 43 -31
-41 -26 -350 -113 -530 -148 l-58 -11 0 -130 0 -129 104 0 c114 0 130 -7 124
-57 l-3 -28 -320 0 -320 0 -3 28 c-6 49 11 57 114 57 l94 0 0 263 c0 247 1
265 21 302 38 73 141 165 184 165 11 0 30 6 40 14 16 12 17 16 6 30 -46 56
-218 -60 -282 -191 -21 -43 -24 -64 -27 -205 l-4 -157 -31 -6 c-56 -9 -319
-25 -424 -25 l-102 0 -3 153 c-3 142 -5 156 -31 208 -55 114 -209 249 -346
305 -57 24 -125 31 -135 15 -10 -16 5 -41 25 -41 36 0 131 -42 202 -90 84 -56
161 -134 203 -205 l29 -50 3 -247 3 -247 96 -3 c105 -3 122 -12 109 -62 l-6
-26 -318 2 -317 3 -3 34 c-2 20 2 37 10 42 7 5 59 9 116 9 l102 0 0 100 0 100
-27 0 c-57 0 -465 31 -666 50 -114 11 -245 20 -290 20 -300 0 -480 59 -638
207 -351 332 -371 975 -41 1309 105 106 233 170 393 195 92 14 282 6 363 -16
222 -61 355 -223 356 -432 0 -89 -16 -157 -61 -251 -72 -150 -197 -252 -361
-294 -198 -50 -388 15 -461 158 -64 128 -35 308 68 423 145 160 457 139 505
-35 25 -88 -22 -202 -108 -259 -41 -27 -140 -51 -154 -37 -5 5 6 12 27 15 116
19 209 174 159 266 -30 55 -63 73 -143 79 -62 4 -77 1 -125 -22 -61 -30 -94
-64 -134 -140 -23 -44 -27 -63 -27 -138 0 -80 2 -89 30 -130 17 -23 51 -54 75
-68 40 -22 57 -25 145 -25 119 1 188 23 268 89 106 86 165 194 174 317 17 216
-153 359 -427 359 -321 0 -546 -241 -527 -565 19 -317 240 -500 582 -481 299
16 504 126 604 323 11 23 30 86 40 140 49 255 164 476 335 649 144 144 294
226 481 263 77 15 354 5 465 -18z" />
        <path d="M2380 2445 c-253 -55 -439 -193 -550 -407 -29 -56 -32 -68 -21 -82
24 -29 39 -17 81 63 103 198 299 334 537 374 73 12 78 14 78 37 0 21 -5 25
-30 27 -16 1 -59 -5 -95 -12z" />
        <path d="M3858 1911 c-74 -24 -116 -51 -170 -108 -147 -159 -137 -399 24 -548
80 -74 146 -99 263 -99 114 0 183 25 258 94 174 159 174 421 0 580 -97 88
-252 122 -375 81z m260 -45 c70 -36 128 -95 161 -165 35 -75 37 -210 3 -284
-30 -66 -101 -138 -169 -172 -51 -26 -69 -29 -148 -30 -82 0 -96 3 -157 33
-124 61 -191 169 -192 312 0 101 35 181 111 250 77 70 136 91 248 87 74 -3 99
-8 143 -31z" />
        <path d="M3821 1728 c-85 -57 -51 -178 49 -178 88 0 131 95 73 160 -38 42 -79
48 -122 18z m47 -42 c5 -24 -10 -38 -31 -30 -17 6 -23 35 -10 48 12 12 38 1
41 -18z" />
    </g>
</svg>